<?xml version="1.0" encoding="UTF-8"?>
<svg width="67.859" height="67.87" viewBox="0 0 67.859 67.87" xml:space="preserve" xmlns="http://www.w3.org/2000/svg">
<style type="text/css">
	.st0{fill:#ffffff;}
	.st1{fill-rule:evenodd;clip-rule:evenodd;fill:#ffffff;}
</style>
    <g transform="translate(-6.6154 -1.88)">
			<path class="st0"
                  d="m10.14 36.95c-2.08 0.44-3.62 1.48-3.44 2.32-0.44-2.08 0.88-4.13 2.96-4.57s3.62-1.48 3.44-2.32c0.45 2.08-0.88 4.12-2.96 4.57"/>
        <path class="st0"
              d="m9.66 36.95c2.08 0.44 3.62 1.48 3.44 2.32 0.44-2.08-0.88-4.13-2.96-4.57s-3.62-1.48-3.44-2.32c-0.44 2.08 0.88 4.12 2.96 4.57"/>
        <path class="st0"
              d="m70.95 36.95c2.08 0.44 3.62 1.48 3.44 2.32 0.44-2.08-0.88-4.13-2.96-4.57s-3.62-1.48-3.44-2.32c-0.45 2.08 0.88 4.12 2.96 4.57"/>
        <path class="st0"
              d="m71.43 36.95c-2.08 0.44-3.62 1.48-3.44 2.32-0.44-2.08 0.88-4.13 2.96-4.57s3.62-1.48 3.44-2.32c0.44 2.08-0.88 4.12-2.96 4.57"/>
        <path class="st0"
              d="m16.54 53.04c1.49 1.25 2.28 2.74 1.78 3.35 1.25-1.49 1.05-3.7-0.43-4.95s-2.28-2.74-1.78-3.34c-1.25 1.47-1.06 3.69 0.43 4.94"/>
        <path class="st0"
              d="m64.55 53.04c-1.49 1.25-2.28 2.74-1.78 3.35-1.25-1.49-1.05-3.7 0.43-4.95s2.28-2.74 1.78-3.34c1.25 1.47 1.06 3.69-0.43 4.94"/>
        <path class="st0"
              d="m22.32 60.52c-1.66-0.81-3.61-1.26-5.46-1.13 1.53-1.04 2.96-2.28 3.77-3.94 0.14 1.84 0.66 3.53 1.69 5.07"/>
        <path class="st0" d="m23.14 61.11c-1.34 1.46-3.76 1.39-5.22 0.05 1.35-1.46 3.91-1.46 5.22-0.05"/>
        <path class="st0" d="m23.14 61.11c1.03-1.52 0.78-3.6-0.74-4.63-1.03 1.52-0.8 4.46 0.74 4.63"/>
        <path class="st0" d="m12.98 49.37c-1.84 0.57-3.98-0.67-4.55-2.52 1.85-0.57 3.98 0.67 4.55 2.52"/>
        <path class="st0" d="m12.98 49.37c1.66-0.8 2.34-2.79 1.54-4.45-1.66 0.8-2.71 3.72-1.54 4.45"/>
        <path class="st0" d="m13.42 40.32c-0.11 1.39-1.34 2.39-2.73 2.28 0.11-1.39 1.34-2.39 2.73-2.28"/>
        <path class="st0" d="m10.75 42.57c-0.12 1.5-1.39 2.55-2.88 2.43 0.12-1.5 1.39-2.55 2.88-2.43"/>
        <path class="st0" d="m14.16 43.65c-1.24 0.64-2.76 0.16-3.4-1.08 1.24-0.64 2.76-0.15 3.4 1.08"/>
        <path class="st0" d="m10.75 42.57c-1.33 0.69-2.97 0.17-3.66-1.16 1.33-0.7 2.97-0.18 3.66 1.16"/>
        <path class="st0" d="m10 38.9c1.1 0.77 1.51 2.41 0.72 3.63-1.22-0.78-1.5-2.41-0.72-3.63"/>
        <path class="st0"
              d="m10.73 42.53c1.22 0.78 1.56 2.35 0.88 3.53 0.01-0.01 0.01 0 0 0-1.15-0.45-1.66-2.31-0.88-3.53"/>
        <path class="st0" d="m11.24 26.72c-1.94-1.38-2.37-4.06-0.98-6 1.94 1.38 2.1 4.2 0.98 6"/>
        <path class="st0" d="m11.24 26.72c2.37 0.25 4.54-1.44 4.79-3.81-2.38-0.25-4.55 1.44-4.79 3.81"/>
        <path class="st0" d="m13.88 20.54c-1.57-1.8-1.36-4.5 0.43-6.07 1.57 1.8 1.07 4.57-0.43 6.07"/>
        <path class="st0" d="m13.87 20.53c2.25 0.79 4.75-0.35 5.54-2.6-2.25-0.79-4.75 0.35-5.54 2.6"/>
        <path class="st0" d="m17.73 15.31c-1.2-2.06-0.48-4.68 1.58-5.87 1.2 2.06 0.18 4.68-1.58 5.87"/>
        <path class="st0" d="m17.72 15.3c2.06 1.2 4.73 0.56 5.94-1.49-2.06-1.21-4.74-0.57-5.94 1.49"/>
        <path class="st0"
              d="m8.46 26.29c-1.17 1.15-1.12 2.97-0.04 4.19 0.77 0.86 1.67 1.33 1.6 2.21l0.18-0.98c0.11-0.72 0.28-1.63-0.51-2.47-1.13-1.18-1.81-2.37-1.23-2.95"/>
        <path class="st0"
              d="m13.8 27.69c0.47 1.43-0.27 2.97-1.6 3.51-0.86 0.35-2.04 0.59-2.17 1.49 0 0 0-0.16 0.03-0.48 0.17-1.73 0.33-2.19 1.5-2.65 1.46-0.58 2.22-0.88 2.24-1.87"/>
        <path class="st0" d="m22.44 11.03c0.52-2.24 2.85-3.55 5.1-3.03-0.53 2.24-2.86 3.55-5.1 3.03"/>
        <path class="st0"
              d="m10.01 32.51s0.02-0.27 0.06-0.42c0.07-0.28 0.32-0.72 0.38-1.08 1.29-8.14 5.84-15.42 12.68-20.2l-0.27-0.39c-6.95 4.85-11.57 12.25-12.88 20.52-0.06 0.36-0.17 0.71 0.01 1.24 0.05 0.15 0.02 0.33 0.02 0.33z"/>
        <circle class="st0" cx="15.62" cy="56.21" r="1.72"/>
        <path class="st0" d="m10.24 51.03c1.98-0.75 4.2 0.25 4.95 2.24-1.99 0.75-4.2-0.25-4.95-2.24"/>
        <path class="st0"
              d="m58.77 60.52c1.66-0.81 3.61-1.26 5.46-1.13-1.53-1.04-2.96-2.28-3.77-3.94-0.14 1.84-0.66 3.53-1.69 5.07"/>
        <path class="st0" d="m57.95 61.11c1.34 1.46 3.76 1.39 5.22 0.05-1.35-1.46-3.91-1.46-5.22-0.05"/>
        <path class="st0" d="m57.95 61.11c-1.03-1.52-0.78-3.6 0.74-4.63 1.03 1.52 0.8 4.46-0.74 4.63"/>
        <path class="st0" d="m68.11 49.37c1.84 0.57 3.98-0.67 4.55-2.52-1.85-0.57-3.98 0.67-4.55 2.52"/>
        <path class="st0" d="m68.11 49.37c-1.66-0.8-2.34-2.79-1.54-4.45 1.66 0.8 2.71 3.72 1.54 4.45"/>
        <path class="st0" d="m67.67 40.32c0.11 1.39 1.34 2.39 2.73 2.28-0.11-1.39-1.34-2.39-2.73-2.28"/>
        <path class="st0" d="m70.33 42.57c0.12 1.5 1.39 2.55 2.88 2.43-0.11-1.5-1.38-2.55-2.88-2.43"/>
        <path class="st0" d="m66.93 43.65c1.24 0.64 2.76 0.16 3.4-1.08-1.24-0.64-2.76-0.15-3.4 1.08"/>
        <path class="st0" d="m70.34 42.57c1.33 0.69 2.97 0.17 3.66-1.16-1.33-0.7-2.97-0.18-3.66 1.16"/>
        <path class="st0" d="m71.09 38.9c-1.1 0.77-1.51 2.41-0.72 3.63 1.22-0.78 1.5-2.41 0.72-3.63"/>
        <path class="st0"
              d="m70.36 42.53c-1.22 0.78-1.56 2.35-0.88 3.53-0.01-0.01-0.01 0 0 0 1.15-0.45 1.66-2.31 0.88-3.53"/>
        <path class="st0" d="m69.84 26.72c1.94-1.38 2.37-4.06 0.98-6-1.93 1.38-2.09 4.2-0.98 6"/>
        <path class="st0" d="m69.85 26.72c-2.37 0.25-4.54-1.44-4.79-3.81 2.37-0.25 4.55 1.44 4.79 3.81"/>
        <path class="st0" d="m67.21 20.54c1.57-1.8 1.36-4.5-0.43-6.07-1.57 1.8-1.07 4.57 0.43 6.07"/>
        <path class="st0" d="m67.22 20.53c-2.25 0.79-4.75-0.35-5.54-2.6 2.25-0.79 4.75 0.35 5.54 2.6"/>
        <path class="st0" d="m63.36 15.31c1.2-2.06 0.48-4.68-1.58-5.87-1.2 2.06-0.18 4.68 1.58 5.87"/>
        <path class="st0" d="m63.37 15.3c-2.06 1.2-4.73 0.56-5.94-1.49 2.06-1.21 4.74-0.57 5.94 1.49"/>
        <path class="st0"
              d="m72.62 26.29c1.17 1.15 1.12 2.97 0.04 4.19-0.77 0.86-1.67 1.33-1.6 2.21l-0.18-0.98c-0.11-0.72-0.28-1.63 0.51-2.47 1.13-1.18 1.82-2.37 1.23-2.95"/>
        <path class="st0"
              d="m67.29 27.69c-0.47 1.43 0.27 2.97 1.6 3.51 0.86 0.35 2.04 0.59 2.17 1.49 0 0 0-0.16-0.03-0.48-0.17-1.73-0.33-2.19-1.5-2.65-1.46-0.58-2.22-0.88-2.24-1.87"/>
        <path class="st0" d="m58.65 11.03c-0.52-2.25-2.85-3.55-5.09-3.03 0.52 2.24 2.85 3.55 5.09 3.03"/>
        <path class="st0"
              d="m71.08 32.51s-0.02-0.27-0.06-0.42c-0.07-0.28-0.32-0.72-0.38-1.08-1.29-8.14-5.84-15.42-12.68-20.2l0.27-0.39c6.95 4.85 11.57 12.25 12.88 20.52 0.06 0.36 0.17 0.71-0.01 1.24-0.05 0.15-0.02 0.33-0.02 0.33z"/>
        <circle class="st0" cx="65.47" cy="56.21" r="1.72"/>
        <path class="st0" d="m70.85 51.03c-1.98-0.75-4.2 0.25-4.95 2.24 1.99 0.75 4.2-0.25 4.95-2.24"/>
        <path class="st0"
              d="m42.72 15.35c-0.69-0.69-0.69-1.82 0-2.51-0.95 0.25-1.92-0.31-2.17-1.26-0.25 0.95-1.23 1.51-2.17 1.26 0.69 0.69 0.69 1.82 0 2.51 0.95-0.25 1.92 0.31 2.17 1.26 0.25-0.95 1.22-1.51 2.17-1.26z"/>
        <path class="st0"
              d="m64.45 37.08c-0.69-0.69-0.69-1.82 0-2.51-0.95 0.25-1.92-0.31-2.17-1.26-0.25 0.95-1.23 1.51-2.17 1.26 0.69 0.69 0.69 1.82 0 2.51 0.95-0.25 1.92 0.31 2.17 1.26 0.25-0.95 1.22-1.51 2.17-1.26z"/>
        <path class="st0"
              d="m20.99 37.08c-0.69-0.69-0.69-1.82 0-2.51-0.95 0.25-1.92-0.31-2.17-1.26-0.25 0.95-1.23 1.51-2.17 1.26 0.69 0.69 0.69 1.82 0 2.51 0.95-0.25 1.92 0.31 2.17 1.26 0.25-0.95 1.22-1.51 2.17-1.26z"/>
        <path class="st0"
              d="m39.21 46.65s-3.49-0.25-3.25 4.7c0 0-3.68 0.51-4.18 1.09-0.77 0.85-1.47-0.73-0.63-1.24 0.87-0.51 2.36-1.02 2.99-1.23-0.63-1.15-2.01-3.08-1.16-5.04 1.06-2.43 4.43-1.74 5.72-0.42z"/>
        <path class="st0"
              d="m41.88 46.68s3.49-0.25 3.25 4.7c0 0 3.68 0.51 4.18 1.09 0.77 0.85 1.47-0.73 0.63-1.24-0.87-0.51-2.36-1.02-2.99-1.23 0.63-1.15 2.01-3.08 1.16-5.04-1.06-2.43-4.43-1.74-5.72-0.42z"/>
        <path class="st0"
              d="m37.58 35.55c-1.11-2.12-2.96-2.76-2.96-2.76s1.89-1.54 1.03-3.61c-1.74-4.17-6.87-5.35-9.03-11.6-1.4 1.77-0.67 3.63 0.64 5.55-0.86-0.61-1.75-0.91-2.69-0.79-0.1 1.43 0.8 2.1 1.32 3.06-0.82-0.2-1.63-0.39-2.46 0.45 0.1 0.62 0.79 1.82 1.87 2.26-0.63 0.01-1.27 0.23-1.95 1.07 0.59 0.78 1.24 1.34 2 1.53-0.49 0.26-0.98 0.38-1.42 1.34 0.46 0.63 1.06 0.96 1.83 1.14-0.31 0.4-0.7 0.59-0.74 1.66 1.08 0.7 1.68 0.5 2.21 0.51-0.24 0.6-0.32 1.3-0.06 2.25 0.71 0 1.48 0.13 1.99-0.23-0.26 0.64 0.07 1.2 0.25 1.78 0.79 0.04 1.47 0.01 1.88-0.42-0.14 0.55 0.27 1.16 0.69 1.74 0.7-0.12 1.46-0.15 1.78-0.73 0.12 0.6 0.73 0.94 1.32 1.3 0.67-0.17 1.29-0.51 1.47-1.02 0.23 0.51 0.71 0.93 1.5 1.23 0.33 2.04 0.8 4.45 1.04 5.84 0.09 3.09-1.27 7.38-2.8 8.68 0 0 1.1 1.71 4.25 1.75 3.16-0.03 4.25-1.75 4.25-1.75-1.53-1.31-2.89-5.59-2.8-8.68 0.24-1.39 0.71-3.79 1.04-5.84 0.8-0.31 1.28-0.73 1.5-1.23 0.18 0.51 0.8 0.85 1.47 1.02 0.59-0.35 1.2-0.7 1.32-1.3 0.32 0.58 1.09 0.62 1.78 0.73 0.41-0.58 0.83-1.19 0.69-1.74 0.4 0.43 1.08 0.46 1.88 0.42 0.18-0.58 0.51-1.14 0.25-1.78 0.51 0.35 1.28 0.23 1.99 0.23 0.26-0.95 0.18-1.65-0.06-2.25 0.53-0.01 1.13 0.19 2.21-0.51-0.04-1.07-0.43-1.26-0.74-1.66 0.76-0.18 1.37-0.52 1.83-1.14-0.44-0.97-0.93-1.08-1.42-1.34 0.76-0.19 1.41-0.75 2-1.53-0.68-0.84-1.32-1.06-1.95-1.07 1.07-0.44 1.77-1.64 1.87-2.26-0.83-0.84-1.65-0.65-2.46-0.45 0.52-0.96 1.42-1.64 1.32-3.06-0.94-0.13-1.84 0.18-2.69 0.79 1.31-1.92 2.03-3.78 0.64-5.55-2.16 6.24-7.29 7.43-9.03 11.6-0.86 2.06 1.03 3.61 1.03 3.61s-1.85 0.64-2.96 2.76c0-2-0.92-4.95-1.05-5.96-0.07-0.55-0.02-1.2 0.07-1.82 0.31-1.97 1.71-3.14 1.75-3.18-0.03 0.01-0.5 0.26-1.34 0.07-0.09-0.02-0.17-0.05-0.26-0.08-0.59-0.24-1.2-0.76-2.31-0.61-0.48 0.07-0.86 0.3-1.11 0.61l-0.02 0.02c-0.41-0.28-0.84-0.35-1.25-0.28-0.7 0.12-1.04 0.65-1.04 1.13v0.07c1.03-0.1 1.69 0.13 2.18 0.7-0.55-0.2-1.16-0.32-2.06-0.11-0.72 0.17-1.43-0.2-1.43-0.2s0.23 0.88 1.32 0.82c1.25-0.06 1.87 0.25 2.23 0.63-0.72-0.17-1.49-0.29-1.79 0.28 0.72 0.03 2.05 0.89 1.91 1.94-0.13 1.02-1.72 4.21-1.72 5.97"/>
        <path class="st0"
              d="m28.17 51.78c-1.06 0.48-1.25 1.16-0.92 1.91 0.31-0.94 1.24-1.25 1.86-1.32-1.06 0.64-1.06 1.42-0.69 2.03 1.06-1.67 3.25-2.03 3.94-1.17l-0.01 0.01c0.18-0.34 0.21-0.7 0.07-1.02-0.49-1.08-2.39-1.28-4.25-0.44z"/>
        <path class="st0"
              d="m52.92 51.78c1.06 0.48 1.25 1.16 0.92 1.91-0.31-0.94-1.24-1.25-1.86-1.32 1.06 0.64 1.06 1.42 0.69 2.03-1.06-1.67-3.25-2.03-3.94-1.17l0.01 0.01c-0.18-0.34-0.21-0.7-0.07-1.02 0.49-1.08 2.39-1.28 4.25-0.44z"/>
        <path class="st1"
              d="m42.24 22.77c0.3-0.32 1-0.62 1.25-0.69 0.62-0.16 1.34 0.04 1.47 0.64 0.13 0.61-0.36 1.15-1.01 1.25-0.6 0.1-1.25-0.33-1.92-0.54s-1.44-0.24-1.88-0.66c-0.48-0.46-0.57-1.18-0.11-1.61 0.46-0.42 1.16-0.17 1.58 0.32 0.16 0.2 0.56 0.85 0.62 1.29z"/>
        <polygon class="st0" points="42.73 20.1 43.37 20.3 42.57 23.32 41.66 23.03"/>
        <polygon class="st0" points="43.37 20.3 42.73 20.1 43.01 18.85 43.86 19.11"/>
        <polygon class="st0" points="43.14 19.91 42.98 20.42 41.81 20.17 42.04 19.44"/>
        <polygon class="st0" points="42.98 20.42 43.14 19.91 44.31 20.16 44.08 20.88"/>
        <path class="st0" d="m58.77 42.31c0.64 3.02-1.29 5.98-4.31 6.62-0.64-3.02 1.29-5.99 4.31-6.62"/>
        <path class="st0"
              d="m57.25 50.01c1.27-0.64 2.2-1.71 2.7-2.93-1.28-0.33-2.69-0.21-3.96 0.44-0.58 0.29-1.08 0.67-1.51 1.11 0.23-0.57 0.37-1.18 0.4-1.82 0.07-1.43-0.39-2.76-1.21-3.8-0.92 0.95-1.51 2.23-1.59 3.65-0.07 1.43 0.39 2.75 1.2 3.79 1.3 0.32 2.7 0.21 3.97-0.44"/>
        <path class="st0" d="m27.7 50.41c-1.44-1.68-3.96-1.87-5.63-0.43 1.43 1.67 3.95 1.86 5.63 0.43"/>
        <path class="st0" d="m27.7 50.41c-0.78-2.06 0.27-4.37 2.33-5.14 0.78 2.06-0.27 4.36-2.33 5.14"/>
        <path class="st0"
              d="m21.14 46.49c2.44 0.71 4.71 2.06 6.55 3.92-0.75-2.51-0.86-5.14-0.31-7.63-1.69 1.8-3.85 3.08-6.24 3.71"/>
        <path class="st0"
              d="m24.82 45.63c0.84-0.52 1.11-1.62 0.59-2.46s-1.62-1.11-2.46-0.59-1.11 1.62-0.59 2.46 1.62 1.1 2.46 0.59"/>
        <path class="st0"
              d="m48.39 8.81c0.54 0 0.92-1.11 0.92-1.73 0-0.36-0.13-0.65-0.4-0.65-0.54 0-0.9 1.1-0.9 1.75 0 0.4 0.14 0.63 0.38 0.63zm0.47 0.81c-1.23 0-2.56-0.79-2.56-2.47 0-1.84 1.67-3.74 3.91-3.74 0.39 0 0.91 0.06 1.43 0.19l-0.19 0.69c-0.22-0.04-0.43-0.07-0.63-0.07-1.13 0-2.11 0.62-2.6 1.97l0.03 0.02c0.33-0.32 0.69-0.43 1.05-0.43 0.92 0 1.76 0.75 1.76 1.85 0 0.99-0.88 1.99-2.2 1.99zm-7.51-1.4c0.04-0.28 0.06-0.53 0.08-0.82 0.32 0.05 0.64 0.08 0.97 0.11l0.39-4.58c-0.32 0.06-0.7 0.09-1.01 0.12 0.04-0.24 0.08-0.5 0.09-0.75 0.61-0.03 1.98-0.22 2.74-0.36l0.12 0.02-0.49 5.7c0.32 0.03 0.64 0.06 0.96 0.07-0.03 0.29-0.07 0.56-0.07 0.85-1.26-0.23-2.61-0.33-3.78-0.36zm-3.5-0.48c0.36 0 0.59-0.33 0.59-0.81 0-0.69-0.47-0.93-1.11-1.19-0.1 0.32-0.12 0.56-0.12 0.8 0 0.59 0.14 1.2 0.64 1.2zm-0.04-3.28c0.11-0.18 0.11-0.35 0.11-0.58 0-0.5-0.15-1.24-0.57-1.24-0.24 0-0.39 0.22-0.39 0.6 0 0.56 0.32 0.96 0.85 1.22zm-0.11 4.12c-0.13 0.01-0.22 0.02-0.4 0.02-1.11 0-1.91-0.58-1.91-1.44s0.8-1.37 1.53-1.6c-0.78-0.36-1.55-0.97-1.55-1.82 0-1.03 1.11-1.86 2.34-1.86 1.13 0 1.79 0.69 1.79 1.38 0 0.72-0.7 1.23-1.23 1.41 1.03 0.4 2 0.73 2 1.77 0.01 1.18-1.22 2.03-2.57 2.14zm-6.61 1.32c-0.07-0.28-0.15-0.55-0.24-0.81 0.31-0.08 0.62-0.17 0.93-0.27l-1.31-4.29c-0.28 0.16-0.56 0.3-0.82 0.45-0.06-0.24-0.12-0.49-0.2-0.72 0.56-0.26 1.69-0.91 2.34-1.32l0.11-0.03 1.65 5.38c0.3-0.09 0.76-0.22 0.92-0.29 0.07 0.27 0.12 0.48 0.25 0.81-1.22 0.29-2.49 0.63-3.63 1.09z"/>
        <path class="st0"
              d="m46.31 63.35c-0.15 0-0.38 0.03-0.53 0.03l-0.1-0.53c0.88-0.13 2.31-0.52 2.96-0.72 0.02 0.09 0.09 0.33 0.15 0.47-0.21 0.14-0.32 0.25-0.54 0.4l2.89 4.16 0.04-0.02-0.18-4.32-0.5-0.62c-0.15 0-0.38 0.03-0.54 0.03-0.02-0.16-0.06-0.35-0.1-0.49 0.98-0.35 1.87-0.73 2.83-1.21 0.03 0.16 0.09 0.36 0.15 0.51-0.2 0.14-0.32 0.24-0.54 0.4l2.81 3.88 0.03-0.01-0.35-5.11c-0.26-0.01-0.58 0.09-0.75 0.16-0.03-0.13-0.06-0.33-0.1-0.48 0.61-0.32 1.72-1.02 1.85-1.1 0.02 0.11 0.09 0.31 0.14 0.47-0.17 0.14-0.29 0.25-0.42 0.46l0.36 6.27c-0.57 0.33-1.15 0.61-1.74 0.81l-2.34-2.99 0.11 4.02c-0.53 0.24-1.29 0.43-1.88 0.64zm-1.53 5.42c-0.64 0.69-1.55 0.98-2.51 0.98-1.97 0-3.23-1.3-3.23-3.35 0-2.4 1.85-3.36 4.51-3.36 0.39 0 0.81 0.02 1.13 0.09v1.95l-0.51 0.05c-0.22-1-0.76-1.4-1.51-1.4-1.18 0-1.58 0.93-1.58 2.21 0 1.43 0.49 3.06 1.57 3.04 0.65-0.01 0.96-0.57 0.96-1.68 0-0.15-0.01-0.32-0.02-0.5-0.27-0.04-0.64-0.08-0.81-0.11 0.02-0.18 0.03-0.41 0.03-0.59l2.5-0.21 0.29 3.5c-0.17-0.01-0.33 0.01-0.49 0.05zm-10.21 0.38c-1.86 0-3.41-1.18-3.41-3.23 0-1.79 1.18-3.37 3.28-3.37 0.98 0 2.41 0.36 3.21 0.75l-0.56 1.87-0.49-0.11c0.09-0.98-0.48-1.81-1.44-1.81-1.32 0-1.99 1.68-1.99 3.46 0 1.02 0.39 1.66 1.09 1.66 0.67 0 1.05-0.59 1.32-1.85-0.25-0.11-0.6-0.26-0.76-0.33 0.07-0.17 0.14-0.38 0.2-0.56l2.46 0.49-0.69 3.44c-0.15-0.06-0.33-0.09-0.49-0.1l-0.11-0.73c-0.51 0.31-1.04 0.42-1.62 0.42zm-7.06-2.37c-1.22 0-3.12-0.76-3.68-1.77 0.33-0.55 0.62-1.12 0.89-1.69 0.17 0.09 0.34 0.16 0.52 0.24-0.11 0.31-0.15 0.57-0.15 0.79 0 0.85 0.72 1.6 1.43 1.6 0.46 0 0.65-0.3 0.65-0.68 0-0.97-1.39-2.39-1.39-3.49 0-0.89 0.73-1.53 1.77-1.53 1.07 0 2.73 0.69 3.28 1.74-0.31 0.4-0.6 0.81-0.87 1.23-0.14-0.09-0.3-0.15-0.46-0.21 0.09-0.27 0.13-0.5 0.13-0.69 0-0.68-0.6-1.21-1.19-1.21-0.44 0-0.64 0.31-0.64 0.65 0 0.84 1.52 2.53 1.52 3.64 0.01 0.87-0.81 1.38-1.81 1.38z"/>
</g>
</svg>
