<svg width="32" height="32" viewBox="0 0 32 32" fill="none" xmlns="http://www.w3.org/2000/svg">
<path fill-rule="evenodd" clip-rule="evenodd" d="M14.5 5C9.25329 5 5 9.25329 5 14.5C5 19.7467 9.25329 24 14.5 24C19.7467 24 24 19.7467 24 14.5C24 9.25329 19.7467 5 14.5 5ZM3 14.5C3 8.14873 8.14873 3 14.5 3C20.8513 3 26 8.14873 26 14.5C26 20.8513 20.8513 26 14.5 26C8.14873 26 3 20.8513 3 14.5Z" fill="white"/>
<path fill-rule="evenodd" clip-rule="evenodd" d="M21.2172 21.2179C21.6077 20.8274 22.2409 20.8274 22.6314 21.2179L28.7065 27.293C29.097 27.6835 29.097 28.3167 28.7065 28.7072C28.316 29.0978 27.6828 29.0978 27.2923 28.7072L21.2172 22.6322C20.8267 22.2416 20.8267 21.6085 21.2172 21.2179Z" fill="white"/>
</svg>
